<svg id="Layer_1" enable-background="new 0 0 512 512" height="512" viewBox="0 0 512 512" width="512" xmlns="http://www.w3.org/2000/svg"><g><path d="m245.002 10.998c-74.477 0-141.182 33.239-186.117 85.682l61.767 370.444c36.453 21.517 78.955 33.878 124.349 33.878 135.311 0 245.002-109.691 245.002-245.002s-109.69-245.002-245.001-245.002z" fill="#73c3f9"/><g><path d="m245.97 77.951c-2.253-4.63-.325-10.21 4.305-12.463l28.504-13.868c7.631-3.711 16.187-4.145 24.094-1.215 4.829 1.788 7.294 7.152 5.505 11.981-1.788 4.828-7.153 7.295-11.981 5.505-3.09-1.143-6.45-.966-9.461.496l-28.503 13.868c-4.63 2.252-10.209.33-12.463-4.304z" fill="#ffb332"/></g><path d="m195.304 356.153c-66.531 0-125.411 9.54-161.436 24.18 21.322 36.129 51.645 66.307 87.894 87.447 22.745 2.645 47.559 4.102 73.542 4.102 109.647 0 198.534-25.907 198.534-57.865 0-31.957-88.887-57.864-198.534-57.864z" fill="#1c2e7a"/><path d="m196.919 356.159v38.654s95.066 44.283-1.615 77.07c109.647 0 198.534-25.907 198.534-57.865 0-31.801-88.017-57.606-196.919-57.859z" fill="#142766"/><path d="m493.105 169.645-271.682-123.855c-16.592-7.563-35.647-7.563-52.239 0l-109.463 49.902c-37.208 42.967-59.721 99.009-59.721 160.308 0 6.558.265 13.055.771 19.483l.811.37v-28.3c0-12.748 20.442-26.316 54.684-36.298 76.73-22.363 201.385-22.353 278.078 0 34.241 9.982 54.683 23.55 54.683 36.298v28.3l104.079-47.448c25.192-11.486 25.192-47.275-.001-58.76z" fill="#3c58a0"/><path d="m154.838 182.535c-82.999-54.99 5.502-132.714 5.502-132.714l-100.62 45.871c-37.207 42.967-59.72 99.009-59.72 160.308 0 6.558.265 13.055.771 19.483l.811.37v-28.3c0-12.747 20.442-26.316 54.684-36.298 27.98-8.155 62.335-13.331 98.411-15.538 4.793-3.03 4.968-9.997.161-13.182z" fill="#2a428c"/><path d="m195.304 189.687c-95.899 0-175.916 19.818-194.475 46.169-.541 6.644-.829 13.36-.829 20.144 0 33.099 6.578 64.658 18.475 93.461 32.88-18.719 99.72-31.531 176.829-31.531 102.772 0 187.305 22.76 197.501 51.93h1.033v-122.308c0-31.958-88.887-57.865-198.534-57.865z" fill="#2a428c"/><path d="m.829 235.856c-.541 6.644-.829 13.36-.829 20.144 0 33.099 6.578 64.658 18.475 93.461 25.854-14.719 72.711-25.782 129.04-29.839 1.07-2.783.477-6.063-1.753-8.373-9.829-10.18-9.807-25.579-9.807-25.579s0-40.333 0-63.667c0-12.833 9.666-21.16 18.365-26.055 2.132-1.2 3.418-3.148 3.86-5.248-78.87 4.349-141.248 22.292-157.351 45.156z" fill="#1c2e7a"/><path d="m195.304 315.443c-77.763 0-145.072 13.033-177.649 32.011 5.299 13.161 11.709 25.753 19.112 37.666 21.461-8.283 50.385-14.832 83.861-18.796 23.766-2.814 47.438 6.012 63.578 23.682 5.96 6.525 16.235 6.525 22.195 0 16.14-17.671 39.814-26.496 63.58-23.682 66.637 7.89 115.248 26.021 122.823 47.693h1.033v-46.645h-1.033c-10.195-29.169-94.728-51.929-197.5-51.929z" fill="#3c58a0"/><path d="m17.655 347.454c5.299 13.161 11.709 25.753 19.112 37.666 21.461-8.283 50.385-14.832 83.861-18.796 5.224-.619 10.444-.674 15.58-.197.378-2.171.222-4.441-.513-6.603-6.086-17.89 2.686-30.332 9.874-37.017 1.581-1.47 2.393-3.422 2.46-5.405-57.162 4.071-104.624 15.351-130.374 30.352z" fill="#2a428c"/><g><path d="m336.668 441.987-16.161-74.382c-1.458-6.708 2.799-13.33 9.509-14.788 6.707-1.46 13.33 2.801 14.787 9.509l16.161 74.382c1.458 6.709-2.799 13.33-9.509 14.788-6.68 1.451-13.323-2.771-14.787-9.509z" fill="#ffdd40"/></g><g><path d="m275.939 451.496c-6.709-1.458-10.967-8.079-9.509-14.788l16.161-74.382c1.457-6.709 8.082-10.96 14.787-9.509 6.709 1.458 10.967 8.079 9.509 14.788l-16.161 74.382c-1.46 6.721-8.088 10.963-14.787 9.509z" fill="#ff9100"/></g><g><path d="m313.697 273.336c-5.149 0-9.324-4.174-9.324-9.323v-184.716c0-6.239-4.296-10.043-7.975-11.406-4.829-1.787-7.294-7.152-5.506-11.981 1.788-4.828 7.149-7.296 11.98-5.505 12.24 4.532 20.148 15.872 20.148 28.892v184.716c0 5.15-4.174 9.323-9.323 9.323z" fill="#ffdd40"/></g><path d="m313.697 303.948c6.039 0 11.738 1.446 16.783 3.996v-32.742c0-9.269-7.514-16.782-16.782-16.782-9.269 0-16.782 7.513-16.782 16.782v32.742c5.044-2.551 10.742-3.996 16.781-3.996z" fill="#ff9100"/><g><path d="m313.697 451.779c-6.866 0-12.431-5.566-12.431-12.431v-74.382c0-6.865 5.566-12.431 12.431-12.431 6.866 0 12.431 5.566 12.431 12.431v74.382c0 6.865-5.565 12.431-12.431 12.431z" fill="#ffb332"/></g><ellipse cx="313.697" cy="338.727" fill="#ffb332" rx="37.266" ry="37.266" transform="matrix(.236 -.972 .972 .236 -89.473 563.662)"/><ellipse cx="320.221" cy="330.972" fill="#ffdd40" rx="18.633" ry="18.633" transform="matrix(.378 -.926 .926 .378 -107.307 502.156)"/></g></svg>