<svg width="132" height="19" viewBox="0 0 132 19" fill="none" xmlns="http://www.w3.org/2000/svg">
<path d="M8.63635 0C3.88976 0 0 3.81066 0 8.42074C0 13.0041 3.85431 16.776 8.63635 16.776C13.4125 16.776 17.2727 13.0097 17.2727 8.42074C17.2727 3.81066 13.3829 0 8.63635 0ZM10.1545 15.6455C9.66872 15.7438 9.15254 15.793 8.63635 15.793C8.12017 15.793 7.60399 15.7438 7.11824 15.6455V13.3454C7.11824 12.7949 7.27005 12.5984 7.47247 12.3329C7.57552 12.2185 7.63772 12.1158 8.09988 11.4385L7.32066 11.3205C5.31668 11.0355 4.52731 10.0229 4.21354 9.23656C3.80871 8.18486 4.02128 6.86758 4.75002 6.03219C4.86137 5.90433 4.95243 5.68802 4.87152 5.46199C4.71958 5.0098 4.73987 4.29229 4.84108 4.01698C5.37769 4.09147 5.92945 4.46482 6.38963 4.73462C6.60167 4.8548 6.71289 4.82306 6.81462 4.83292C7.1844 4.75817 7.7612 4.57732 8.6465 4.57732C9.19299 4.57732 9.76993 4.65591 10.3367 4.81321C10.4381 4.8109 10.6009 4.89461 10.8832 4.73462C11.3642 4.44997 11.8973 4.08942 12.4316 4.01698C12.5328 4.29229 12.5531 5.0098 12.4013 5.46199C12.3203 5.68802 12.4113 5.90433 12.5228 6.03219C13.2514 6.86771 13.464 8.18486 13.0592 9.23656C12.7454 10.0229 11.956 11.0355 9.95205 11.3205L9.17283 11.4385C9.65053 12.1386 9.70087 12.2226 9.80037 12.3329C10.0027 12.5984 10.1545 12.7949 10.1545 13.3454V15.6455ZM11.1665 15.3605V13.3454C11.1665 12.7851 11.045 12.4116 10.8831 12.1363C12.4215 11.7334 13.5146 10.8486 14.0003 9.58059C14.5165 8.24386 14.2838 6.65141 13.4234 5.55043C13.5753 4.89192 13.5753 3.8401 13.211 3.34861C13.049 3.13244 12.8263 3.01443 12.543 3.01443C12.5328 3.01443 12.5328 3.01443 12.5328 3.01443C11.7481 3.05564 11.1304 3.43949 10.4682 3.83024C9.86099 3.67294 9.2436 3.59435 8.62621 3.59435C7.9988 3.59435 7.37126 3.6828 6.81475 3.83024C6.11764 3.42195 5.50591 3.05462 4.69942 3.01443C4.4464 3.01443 4.22369 3.13244 4.06173 3.34861C3.69749 3.8401 3.69749 4.89192 3.8493 5.55043C2.98891 6.65141 2.75618 8.25359 3.27237 9.58059C3.75811 10.8486 4.85123 11.7334 6.38963 12.1363C6.26404 12.3497 6.16468 12.625 6.12554 12.9976C5.81481 13.1016 5.54531 13.1355 5.29467 13.064C5.03032 12.9881 4.82434 12.8167 4.64539 12.5244C4.24346 11.8686 3.55886 11.3332 2.77938 11.4028L2.86833 12.3819C3.22928 12.3498 3.58851 12.7207 3.77511 13.0265C4.08295 13.53 4.49766 13.8602 5.00805 14.0066C5.38691 14.115 5.73323 14.1125 6.10617 14.0352V15.3605C3.16101 14.3578 1.01207 11.6252 1.01207 8.42074C1.01207 4.35129 4.4464 0.982966 8.63635 0.982966C12.8263 0.982966 16.2606 4.35129 16.2606 8.42074C16.2606 11.6252 14.1117 14.3578 11.1665 15.3605Z" fill="white"/>
<path d="M55.2727 4.62973C54.1862 4.67836 54.2099 4.67439 54.0871 4.68438L54.7306 2.89955C54.7306 2.89955 52.722 3.61719 52.2128 3.74557C50.8755 2.57817 48.8877 2.52659 47.4666 3.37491C46.3028 4.06977 45.6782 5.26302 45.8865 6.65773C43.6216 6.35248 41.7133 5.30974 40.2067 3.55192L39.7301 2.99606L39.3741 3.63115C38.924 4.43364 38.7746 5.35121 38.9532 6.21476C39.0264 6.56904 39.151 6.90693 39.3235 7.22332L38.9147 7.06948L38.8662 7.73285C38.817 8.40672 39.048 9.19335 39.4842 9.83688C39.6071 10.0181 39.7652 10.2171 39.9656 10.4135L39.7544 10.382L40.0122 11.1421C40.351 12.1408 41.0547 12.9135 41.9679 13.3431C41.0559 13.719 40.3191 13.9588 39.108 14.3457L38 14.6995L39.0234 15.2429C39.4136 15.4502 40.7924 16.1422 42.1548 16.3498C45.1831 16.8111 48.5926 16.4354 50.888 14.4276C52.8213 12.7365 53.4557 10.3309 53.3239 7.82756C53.304 7.44859 53.4109 7.08688 53.6249 6.80927C54.0536 6.25341 55.2701 4.63344 55.2727 4.62973ZM52.8157 6.22052C52.4602 6.68141 52.2822 7.27004 52.3141 7.87774C52.4471 10.4029 51.7397 12.3611 50.2114 13.6978C48.4262 15.2595 45.5467 15.8724 42.3115 15.3795C41.7256 15.2903 41.12 15.0905 40.6189 14.891C41.6342 14.5517 42.4183 14.2492 43.6846 13.6671L45.4523 12.8545L43.5006 12.7332C42.5658 12.6751 41.7874 12.235 41.3089 11.5206C41.5629 11.5063 41.8079 11.4663 42.0518 11.4003L43.9132 10.8968L42.0363 10.4503C41.1242 10.2334 40.6044 9.70339 40.3288 9.29689C40.1479 9.02978 40.0297 8.75613 39.9588 8.50387C40.147 8.55289 40.3664 8.58783 40.7202 8.62187L42.4575 8.78877L41.081 7.74591C40.0892 6.9946 39.6918 5.86586 39.9832 4.78075C43.0784 7.89886 46.7127 7.66451 47.0785 7.74693C46.998 6.98731 46.9958 6.98552 46.9748 6.9132C46.5063 5.30475 47.533 4.48804 47.9961 4.21158C48.9633 3.63422 50.4987 3.54718 51.5622 4.49841C51.7919 4.7037 52.1025 4.78447 52.3932 4.71433C52.6541 4.65136 52.8682 4.58467 53.0779 4.5121L52.6414 5.72264L53.1986 5.72302C53.0935 5.85997 52.9673 6.02392 52.8157 6.22052Z" fill="white"/>
<path d="M78.5302 17.8944H90.7425C92.1377 17.8944 93.2727 16.792 93.2727 15.4369V3.57582C93.2727 2.22079 92.1377 1.11841 90.7425 1.11841H78.5302C77.135 1.11841 76 2.22079 76 3.57582V15.4369C76 16.792 77.135 17.8944 78.5302 17.8944ZM77.0121 3.57582C77.0121 2.76283 77.6931 2.10137 78.5302 2.10137H90.7425C91.5796 2.10137 92.2606 2.76283 92.2606 3.57582V15.4369C92.2606 16.2499 91.5796 16.9114 90.7425 16.9114H78.5302C77.6931 16.9114 77.0121 16.2499 77.0121 15.4369V3.57582Z" fill="white"/>
<path d="M84.6364 13.9297C87.1476 13.9297 89.1907 11.9453 89.1907 9.50636C89.1907 7.06737 87.1476 5.08301 84.6364 5.08301C82.1252 5.08301 80.082 7.06737 80.082 9.50636C80.082 11.9453 82.1252 13.9297 84.6364 13.9297ZM84.6364 6.06597C86.5896 6.06597 88.1786 7.60928 88.1786 9.50636C88.1786 11.4034 86.5896 12.9467 84.6364 12.9467C82.6831 12.9467 81.0941 11.4034 81.0941 9.50636C81.0941 7.60928 82.6831 6.06597 84.6364 6.06597Z" fill="white"/>
<path d="M89.4092 5.82742C90.2363 5.82742 90.9092 5.17386 90.9092 4.37056C90.9092 3.56726 90.2363 2.9137 89.4092 2.9137C88.5821 2.9137 87.9092 3.56726 87.9092 4.37056C87.9092 5.17386 88.5821 5.82742 89.4092 5.82742ZM89.4092 3.88494C89.6848 3.88494 89.9092 4.10284 89.9092 4.37056C89.9092 4.63828 89.6848 4.85618 89.4092 4.85618C89.1335 4.85618 88.9092 4.63828 88.9092 4.37056C88.9092 4.10284 89.1335 3.88494 89.4092 3.88494Z" fill="white"/>
<path d="M116.53 18.4536H122.164V12.4902H120.14V10.5243H122.164V8.06689C122.164 6.71186 123.299 5.60948 124.694 5.60948H127.224V7.57541H125.2C124.642 7.57541 124.188 8.01634 124.188 8.55838V10.5243H127.133L126.796 12.4902H124.188V18.4536H128.743C130.138 18.4536 131.273 17.3512 131.273 15.9962V4.13503C131.273 2.77999 130.138 1.67761 128.743 1.67761H116.53C115.135 1.67761 114 2.77999 114 4.13503V15.9962C114 17.3512 115.135 18.4536 116.53 18.4536ZM115.012 4.13503C115.012 3.32203 115.693 2.66058 116.53 2.66058H128.743C129.58 2.66058 130.261 3.32203 130.261 4.13503V15.9962C130.261 16.8092 129.58 17.4706 128.743 17.4706H125.2V13.4732H127.653L128.328 9.54134H125.2V8.55838H128.236V4.62651H124.694C122.741 4.62651 121.152 6.16982 121.152 8.06689V9.54134H119.128V13.4732H121.152V17.4706H116.53C115.693 17.4706 115.012 16.8092 115.012 15.9962V4.13503Z" fill="white"/>
</svg>
