<svg height="512" viewBox="0 0 64 64" width="512" xmlns="http://www.w3.org/2000/svg"><g id="Fill_Outlines" data-name="Fill Outlines"><g id="Color"><g><g><path d="m3 3h42v4h-42z" fill="#d0d8da"/><path d="m3 55h42v4h-42z" fill="#d0d8da"/><g><path d="m7 47h34v8h-34z" fill="#d0d8da"/><path d="m7 39h34v8h-34z" fill="#d0d8da"/><path d="m11 39h-4v8h34v-4h-26a4 4 0 0 1 -4-4z" fill="#93999a"/><path d="m11 47h-4v8h34v-4h-26a4 4 0 0 1 -4-4z" fill="#93999a"/><path d="m7 31h34v8h-34z" fill="#d0d8da"/><path d="m11 31h-4v8h34v-4h-26a4 4 0 0 1 -4-4z" fill="#93999a"/></g><g><path d="m7 23h34v8h-34z" fill="#d0d8da"/><path d="m7 15h34v8h-34z" fill="#d0d8da"/><path d="m11 15h-4v8h34v-4h-26a4 4 0 0 1 -4-4z" fill="#93999a"/><path d="m11 23h-4v8h34v-4h-26a4 4 0 0 1 -4-4z" fill="#93999a"/><path d="m7 7h34v8h-34z" fill="#d0d8da"/><path d="m11 7h-4v8h34v-4h-26a4 4 0 0 1 -4-4z" fill="#93999a"/></g><g fill="#93999a"><path d="m7 3h-4v4h42v-2h-36a2 2 0 0 1 -2-2z"/><path d="m7 55h-4v4h42v-2h-36a2 2 0 0 1 -2-2z"/></g></g><g><circle cx="41" cy="41" fill="#f9e109" r="20"/><path d="m48 55a19.974 19.974 0 0 1 -16.141-31.775 19.989 19.989 0 1 0 25.282 29.55 19.891 19.891 0 0 1 -9.141 2.225z" fill="#fcbc04"/><circle cx="41" cy="41" fill="#fcbc04" r="16"/><g fill="#e59730"><path d="m41 25a15.957 15.957 0 0 0 -12.7 6.3 15.98 15.98 0 0 1 22.4 22.4 15.986 15.986 0 0 0 -9.7-28.7z"/><path d="m48 55a19.969 19.969 0 0 1 -19.629-23.8 15.986 15.986 0 0 0 20.436 23.759c-.27.011-.535.041-.807.041z"/></g></g></g></g><g id="Outlines_copy" data-name="Outlines copy"><g fill="#1f2d51"><path d="m29 46a2 2 0 0 1 -2-2 1 1 0 0 0 -2 0 4 4 0 1 0 4-4 2 2 0 1 1 2-2 1 1 0 0 0 2 0 4 4 0 1 0 -4 4 2 2 0 0 1 0 4z"/><path d="m57 47a1 1 0 0 0 -1-1h-5v-11a1 1 0 0 0 -2 0v12a1 1 0 0 0 1 1h6a1 1 0 0 0 1-1z"/><path d="m47 40a6 6 0 0 0 -12 0v2a5.99 5.99 0 0 0 9.471 4.885l.822.822a1 1 0 0 0 1.414-1.414l-.822-.822a5.961 5.961 0 0 0 1.115-3.471zm-4.293 2.293a1 1 0 0 0 -1.414 1.414l1.726 1.726a3.947 3.947 0 0 1 -2.019.567 4 4 0 0 1 -4-4v-2a4 4 0 0 1 8 0v2a3.947 3.947 0 0 1 -.567 2.019z"/><path d="m57.257 27.712a1 1 0 1 0 -1.547 1.267 19.018 19.018 0 1 1 -2.689-2.688 1 1 0 0 0 1.266-1.548 21 21 0 1 0 2.97 2.969z"/><path d="m52.7 31.626a1 1 0 0 0 1.561-1.252 16.98 16.98 0 0 0 -26.52 0 1 1 0 0 0 1.559 1.252 14.977 14.977 0 0 1 23.4 0z"/><path d="m41 58a16.928 16.928 0 0 0 13.26-6.374 1 1 0 0 0 -1.56-1.252 14.977 14.977 0 0 1 -23.4 0 1 1 0 0 0 -1.561 1.252 16.928 16.928 0 0 0 13.261 6.374z"/><circle cx="28" cy="19" r="1"/><circle cx="32" cy="19" r="1"/><path d="m11 18a1 1 0 0 0 0 2h12a1 1 0 0 0 0-2z"/><circle cx="28" cy="11" r="1"/><circle cx="32" cy="11" r="1"/><circle cx="36" cy="11" r="1"/><path d="m11 12h12a1 1 0 0 0 0-2h-12a1 1 0 0 0 0 2z"/><path d="m25.326 58h-21.326v-2h17.729a1 1 0 0 0 0-2h-13.729v-6h9.918a1 1 0 1 0 0-2h-9.918v-6h9.1a1 1 0 0 0 0-2h-9.1v-6h11.7a1 1 0 1 0 0-2h-11.7v-6h17.326a1 1 0 0 0 0-2h-17.326v-6h32v1a1 1 0 0 0 2 0v-9h3a1 1 0 0 0 1-1v-4a1 1 0 0 0 -1-1h-42a1 1 0 0 0 -1 1v4a1 1 0 0 0 1 1h3v46h-3a1 1 0 0 0 -1 1v4a1 1 0 0 0 1 1h22.326a1 1 0 0 0 0-2zm-21.326-54h40v2h-40zm36 4v6h-32v-6z"/><path d="m15 26a1 1 0 0 0 0 2h7a1 1 0 0 0 0-2z"/><path d="m12 50a1 1 0 0 0 0 2h3a1 1 0 0 0 0-2z"/><path d="m12 34a1 1 0 0 0 0 2h2a1 1 0 0 0 0-2z"/><circle cx="18" cy="35" r="1"/><circle cx="12" cy="43" r="1"/><circle cx="16" cy="43" r="1"/><circle cx="19" cy="51" r="1"/><circle cx="12" cy="27" r="1"/></g></g></g></svg>